<?xml version="1.0" encoding="UTF-8"?>
<svg width="23px" height="14px" viewBox="0 0 23 14" version="1.1" xmlns="http://www.w3.org/2000/svg" xmlns:xlink="http://www.w3.org/1999/xlink">
    <!-- Generator: Sketch 61 (89581) - https://sketch.com -->
    <title>behance@1x</title>
    <desc>Created with Sketch.</desc>
    <g id="Hiro" stroke="none" stroke-width="1" fill="none" fill-rule="evenodd">
        <g id="Costomark-Agency" transform="translate(-739.000000, -4100.000000)" fill="#000000" fill-rule="nonzero">
            <g id="Stacked-Group-5" transform="translate(641.000000, 4094.000000)">
                <g id="behance" transform="translate(98.000000, 6.000000)">
                    <path d="M11.847875,9.74923364 C11.847875,8.02980685 11.0055,6.75884528 9.26516667,6.28246729 C10.5349583,5.69536864 11.1971667,4.80588162 11.1971667,3.42233853 C11.1971667,0.694330218 9.0965,0.0290758048 6.672875,0.0290758048 L-1.27675648e-15,0.0290758048 L-1.27675648e-15,13.7258733 L6.85975,13.7258733 C9.43191667,13.7258733 11.847875,12.5321371 11.847875,9.74923364 Z M3.11075,2.36723572 L6.02983333,2.36723572 C7.15204167,2.36723572 8.162125,2.67241537 8.162125,3.93221184 C8.162125,5.09524403 7.37629167,5.56324818 6.264625,5.56324818 L3.11075,5.56324818 L3.11075,2.36723572 Z M3.10979167,11.3998089 L3.10979167,7.62786293 L6.500375,7.62786293 C7.86983333,7.62786293 8.73616667,8.18053583 8.73616667,9.58361786 C8.73616667,10.967161 7.702125,11.3998089 6.43616667,11.3998089 L3.10979167,11.3998089 Z" id="Shape"></path>
                    <path d="M18.0128333,13.9854621 C20.4604167,13.9854621 22.0455,12.9182638 22.8083333,10.6498858 L20.3243333,10.6498858 C20.0569583,11.4965732 18.954875,11.944108 18.1000417,11.944108 C16.45075,11.944108 15.5844167,11.0090301 15.5844167,9.41986293 L22.9760417,9.41986293 C23.209875,6.23966771 21.3852083,3.52933749 18.011875,3.52933749 C14.8886667,3.52933749 12.7688333,5.80143718 12.7688333,8.77786916 C12.7688333,11.8668827 14.7775,13.9854621 18.0128333,13.9854621 L18.0128333,13.9854621 Z M17.9246667,5.58743925 C19.3382083,5.58743925 20.0492917,6.3913271 20.168125,7.70601869 L15.58825,7.70601869 C15.6812083,6.40249221 16.5753333,5.58743925 17.9246667,5.58743925 Z" id="Shape"></path>
                    <polygon id="Path" points="15.0142083 0.748294912 20.7527083 0.748294912 20.7527083 2.09741225 15.0142083 2.09741225"></polygon>
                </g>
            </g>
        </g>
    </g>
</svg>