<?xml version="1.0" encoding="utf-8"?>
<!-- Generator: Adobe Illustrator 18.0.0, SVG Export Plug-In . SVG Version: 6.00 Build 0)  -->
<!DOCTYPE svg PUBLIC "-//W3C//DTD SVG 1.1//EN" "http://www.w3.org/Graphics/SVG/1.1/DTD/svg11.dtd">
<svg version="1.1" xmlns="http://www.w3.org/2000/svg" xmlns:xlink="http://www.w3.org/1999/xlink" x="0px" y="0px"
	 viewBox="0 0 140 80" style="enable-background:new 0 0 140 80;" xml:space="preserve">
<g id="guias" style="display:none;">
</g>
<g id="fondo">
</g>
<g id="Capa_1">
	<g>
		<path style="fill:#FFFFFF;" d="M126.7,47.6C126.7,47.6,126.7,47.6,126.7,47.6L126.7,47.6C126.7,47.6,126.7,47.6,126.7,47.6z"/>
		<path style="fill:#FFFFFF;" d="M129.9,44.6c-0.1-0.1-0.3-0.1-0.4-0.2C129.7,44.5,129.8,44.6,129.9,44.6z"/>
		<path d="M128.8,55.4C128.8,55.4,128.8,55.4,128.8,55.4L128.8,55.4C128.8,55.4,128.8,55.4,128.8,55.4z"/>
		<path d="M131.3,45.5C131.3,45.5,131.3,45.5,131.3,45.5C131.3,45.5,131.3,45.5,131.3,45.5z"/>
		<path d="M130.9,45.2C130.8,45.2,130.8,45.2,130.9,45.2C130.8,45.2,130.8,45.2,130.9,45.2z"/>
		<path d="M132,46.2C132,46.2,132,46.2,132,46.2C132,46.2,132,46.2,132,46.2z"/>
		<path d="M129.9,44.7C129.9,44.7,129.9,44.6,129.9,44.7C129.9,44.6,129.9,44.7,129.9,44.7z"/>
		<path d="M129.9,30.7h-11.6c0,0,0,0,0.1,0c0.1,0.1,0.3,0.1,0.4,0.2c0,0,0,0,0,0c0.1,0.1,0.3,0.1,0.4,0.2c0,0,0.1,0,0.1,0.1
			c0.1,0.1,0.2,0.1,0.3,0.2c0,0,0.1,0,0.1,0.1c0.1,0.1,0.3,0.2,0.4,0.3c0,0,0,0,0.1,0c0.1,0.1,0.2,0.2,0.3,0.3c0,0,0.1,0.1,0.1,0.1
			c0.1,0.1,0.2,0.2,0.3,0.3c0,0,0,0,0.1,0.1c0.1,0.1,0.2,0.2,0.3,0.4c0,0,0,0.1,0.1,0.1c0.1,0.1,0.2,0.2,0.2,0.3c0,0,0,0,0,0.1h8.4
			c2.4,0,4.1,2,4.1,4.5c0,2.5-1.7,4.5-4.1,4.5h-8.4h-3.9c-0.8,0-1.6-0.2-2.3-0.7c-0.6-0.4-1.1-0.8-1.4-1.4c-0.4-0.6-0.6-1.2-0.7-1.9
			c0-0.2,0-0.3,0-0.5c0-1.7,0.9-3.2,2.3-3.9c0,0,0,0-0.1,0h-3.6c-0.8,1.2-1.2,2.5-1.2,3.9c0,1.5,0.4,2.9,1.3,4
			c1.1,1.6,2.8,2.6,4.6,2.9c0.3,0.1,0.7,0.1,1,0.1h12.2c3.8,0,6.9-3.2,6.9-7.1C136.8,33.8,133.7,30.7,129.9,30.7z"/>
		<path style="fill:#DD3627;" d="M96.3,53.4c-0.2,0-0.5-0.1-0.5-0.4V42.7c1.3,1.7,3,3.2,5.2,3.9l-4.3,6.6
			C96.5,53.4,96.4,53.4,96.3,53.4z"/>
		<path style="fill:#DD3627;" d="M96.3,22.5c-0.2,0-0.5,0.1-0.5,0.4v10.3c1.3-1.7,3-3.2,5.1-3.9l-4.3-6.6
			C96.5,22.6,96.4,22.5,96.3,22.5z"/>
		<path d="M121.1,33.7c-1.1-1.6-2.8-2.6-4.6-2.9c-0.3-0.1-0.7-0.1-1-0.1h-12.2c-0.5,0-0.9,0-1.4,0.1c-3,0.6-5.3,3.2-5.5,6.4
			c0,0.2,0,0.3,0,0.5c0,3.9,3.1,7.1,6.9,7.1h11.6c0,0,0,0-0.1,0c-0.1-0.1-0.3-0.1-0.4-0.2c0,0,0,0,0,0c-0.1-0.1-0.3-0.1-0.4-0.2
			c0,0-0.1,0-0.1-0.1c-0.1-0.1-0.2-0.1-0.3-0.2c0,0-0.1,0-0.1-0.1c-0.1-0.1-0.3-0.2-0.4-0.3c0,0,0,0-0.1,0c-0.1-0.1-0.2-0.2-0.3-0.3
			c0,0-0.1-0.1-0.1-0.1c-0.1-0.1-0.2-0.2-0.3-0.3c0,0,0,0-0.1-0.1c-0.1-0.1-0.2-0.2-0.3-0.4c0,0,0-0.1-0.1-0.1
			c-0.1-0.1-0.2-0.2-0.2-0.3c0,0,0,0,0-0.1h-8.4c-2.4,0-4.1-2-4.1-4.5c0-2.5,1.7-4.5,4.1-4.5h8.4h3.9c0.4,0,0.8,0.1,1.2,0.2
			c0.3,0.1,0.5,0.2,0.8,0.3c1.5,0.7,2.4,2.3,2.4,4c0,1.7-0.9,3.2-2.3,3.9c0,0,0,0,0.1,0h3.6c0.8-1.2,1.2-2.5,1.2-3.9
			C122.4,36.3,121.9,34.9,121.1,33.7z"/>
		<g>
			<polygon style="fill:#DD3627;" points="112.3,28.6 112.4,28.7 113.5,28.7 112.8,28.3 			"/>
			<polygon style="fill:#DD3627;" points="112.3,9.7 108.7,8.9 109.4,12.9 110.7,13 			"/>
			<path style="fill:#DD3627;" d="M112.6,26l0.6,1.2l1.5-0.1l-1.1,0.8l0.4,0.9h8.5l-4.2-9.6l-1.2-2.6l-0.9-2.1l-1.9,0.9l1.2,3.5
				l-3.6-2.3l-1.6,0.8l1.8,9.9l0.1,0L112.6,26z M116.8,23.7l1,0.9l1.4-0.5l-0.8,1.1l1,0.9l-1.5-0.3l-0.8,1.1l-0.1-1.2l-1.5-0.3
				l1.4-0.5L116.8,23.7z"/>
			<polygon style="fill:#DD3627;" points="115.6,13.2 114.3,10.2 112.4,9.8 113.5,13.1 			"/>
			<polygon style="fill:#FBDC2F;" points="117,25.8 117.1,27 117.9,25.9 119.3,26.2 118.4,25.3 119.1,24.2 117.7,24.7 116.8,23.7 
				116.9,25 115.5,25.5 			"/>
			<polygon style="fill:#FBDC2F;" points="113.5,27.9 114.6,27.1 113.1,27.1 112.6,26 112.2,27.2 112.1,27.2 112.3,28.6 112.8,28.3 
				113.5,28.7 113.9,28.7 			"/>
			<polygon style="fill:#FBDC2F;" points="115.4,18.8 114.3,15.3 116.1,14.4 116.1,14.2 115.6,13.2 113.5,13.1 112.4,9.8 112.3,9.7 
				110.7,13 109.4,12.9 110.3,17.3 111.9,16.5 			"/>
		</g>
		<polygon style="fill:#DD3627;" points="113.9,46.7 113.5,46.7 112.4,46.7 112.3,46.8 112.1,48.3 110.3,58.1 109.4,62.5 
			108.7,66.6 112.3,65.7 112.4,65.7 114.3,65.2 115.6,62.2 116.1,61.2 116.1,61.1 117.1,58.9 118.2,56.3 122.4,46.7 		"/>
		<g>
			<path d="M69.2,12.1v11.2h-3V12.1h-3.8V9.4h10.5v2.7H69.2z"/>
			<path d="M77.8,9.4v8.5c0,1.9,0.7,2.9,2.5,2.9c1.8,0,2.5-1,2.5-2.9V9.4h2.9v8.2c0,4.1-1.5,5.9-5.4,5.9s-5.4-1.8-5.4-5.9V9.4H77.8z
				"/>
			<path d="M13.5,42.9V29.1h9.4v2.7h-6.4v2.8H22v2.7h-5.5v3h6.4v2.7H13.5z"/>
			<path d="M29.8,36.4l-1.3-2.8h-0.1v9.3h-2.8V29.1h3.3l3.8,6.6l1.3,2.8H34v-9.3h2.8v13.9h-3.3L29.8,36.4z"/>
			<path d="M39.9,42.9V29.1h3v11.2h5.3v2.7H39.9z"/>
			<path d="M59.3,42.9l-1-3.3h-4.6l-1,3.3h-3.1l4.6-13.9H58l4.5,13.9H59.3z M56,31.8L56,31.8l-1.6,5.3h3.2L56,31.8z"/>
			<path d="M63.3,36.1c0-4.7,2.4-7.3,6.1-7.3c2.5,0,4.2,1,5.2,3.3L72,33.4c-0.4-1.2-1.1-1.9-2.6-1.9c-1.8,0-2.9,1.2-2.9,3.4v2.2
				c0,2.2,1.2,3.4,2.9,3.4c1.5,0,2.3-0.9,2.8-2.1l2.5,1.4c-1,2.1-2.7,3.3-5.2,3.3C65.7,43.2,63.3,40.8,63.3,36.1z"/>
			<path d="M76.7,42.9V29.1h9.4v2.7h-6.4v2.8h5.5v2.7h-5.5v3h6.4v2.7H76.7z"/>
			<path d="M2.7,50.9H8c3.7,0,6.1,2.3,6.1,6.9c0,4.6-2.4,6.9-6.1,6.9H2.7V50.9z M8,62c1.8,0,2.9-1,2.9-3.2v-2.1
				c0-2.2-1.1-3.2-2.9-3.2H5.8V62H8z"/>
			<path d="M16,64.7v-2.4h1.8v-9.1H16v-2.4h6.6v2.4h-1.8v9.1h1.8v2.4H16z"/>
			<path d="M28.2,64.7h-3V50.9h6.6c2.6,0,4.2,1.8,4.2,4.4c0,1.9-0.8,3.4-2.5,4l2.7,5.4h-3.4l-2.4-5.1h-2.2V64.7z M31.4,57.1
				c0.9,0,1.4-0.5,1.4-1.4v-0.9c0-0.9-0.6-1.4-1.4-1.4h-3.2v3.6H31.4z"/>
			<path d="M38.5,64.7V50.9H48v2.7h-6.4v2.8h5.5V59h-5.5v3H48v2.7H38.5z"/>
			<path d="M50.1,57.9c0-4.7,2.4-7.3,6.1-7.3c2.5,0,4.2,1,5.2,3.3l-2.6,1.4c-0.4-1.2-1.1-1.9-2.6-1.9c-1.8,0-2.9,1.2-2.9,3.4v2.2
				c0,2.2,1.2,3.4,2.9,3.4c1.5,0,2.3-0.9,2.8-2.1l2.5,1.4c-1,2.1-2.7,3.3-5.2,3.3C52.5,65,50.1,62.6,50.1,57.9z"/>
			<path d="M69.3,53.5v11.2h-3V53.5h-3.8v-2.7h10.5v2.7H69.3z"/>
			<path d="M74.1,57.8c0-4.7,2.4-7.2,6.1-7.2s6.1,2.5,6.1,7.2c0,4.7-2.4,7.2-6.1,7.2S74.1,62.5,74.1,57.8z M83.1,58.8v-2.1
				c0-2.2-1.1-3.5-2.9-3.5c-1.8,0-2.9,1.3-2.9,3.5v2.1c0,2.2,1.1,3.5,2.9,3.5C82,62.3,83.1,61,83.1,58.8z"/>
		</g>
	</g>
</g>
<g id="Capa_4">
</g>
</svg>
