<?xml version="1.0" encoding="UTF-8"?>
<svg width="20px" height="16px" viewBox="0 0 20 16" version="1.1" xmlns="http://www.w3.org/2000/svg" xmlns:xlink="http://www.w3.org/1999/xlink">
    <!-- Generator: Sketch 61 (89581) - https://sketch.com -->
    <title>medium@1x</title>
    <desc>Created with Sketch.</desc>
    <g id="Hiro" stroke="none" stroke-width="1" fill="none" fill-rule="evenodd">
        <g id="Costomark-Agency" transform="translate(-778.000000, -4098.000000)" fill="#000000" fill-rule="nonzero">
            <g id="Stacked-Group-5" transform="translate(641.000000, 4094.000000)">
                <g id="medium" transform="translate(137.000000, 4.000000)">
                    <path d="M18.4041667,1.90360591 L20,0.363402299 L20,0.026272578 L14.4716667,0.026272578 L10.5316667,9.91989491 L6.04916667,0.026272578 L0.2525,0.026272578 L0.2525,0.363402299 L2.11666667,2.62746798 C2.29833333,2.79477176 2.39333333,3.039422 2.36916667,3.28575369 L2.36916667,12.1831199 C2.42666667,12.5034351 2.32333333,12.8329984 2.1,13.0658785 L0,15.633445 L0,15.9663711 L5.95416667,15.9663711 L5.95416667,15.6292414 L3.85416667,13.0658785 C3.62666667,12.8321576 3.51916667,12.5084795 3.565,12.1831199 L3.565,4.48714614 L8.79166667,15.9705747 L9.39916667,15.9705747 L13.8933333,4.48714614 L13.8933333,13.6350476 C13.8933333,13.876335 13.8933333,13.9259376 13.7366667,14.0839934 L12.12,15.6620296 L12.12,16 L19.9633333,16 L19.9633333,15.6628703 L18.405,14.1235074 C18.2683333,14.0192578 18.1975,13.8443875 18.2266667,13.6745616 L18.2266667,2.35255172 C18.1975,2.18188506 18.2675,2.00701478 18.4041667,1.90360591 L18.4041667,1.90360591 Z" id="Path"></path>
                </g>
            </g>
        </g>
    </g>
</svg>