<?xml version="1.0" encoding="utf-8"?>
<!-- Generator: Adobe Illustrator 18.0.0, SVG Export Plug-In . SVG Version: 6.00 Build 0)  -->
<!DOCTYPE svg PUBLIC "-//W3C//DTD SVG 1.1//EN" "http://www.w3.org/Graphics/SVG/1.1/DTD/svg11.dtd">
<svg version="1.1" xmlns="http://www.w3.org/2000/svg" xmlns:xlink="http://www.w3.org/1999/xlink" x="0px" y="0px"
	 viewBox="0 0 841.9 595.3" enable-background="new 0 0 841.9 595.3" xml:space="preserve">
<g id="guias" display="none">
</g>
<g id="fondo">
</g>
<g id="Capa_1">
	<path fill="#FFFFFF" d="M651.4,327.4c-0.8-0.4-1.7-0.8-2.5-1.2C649.7,326.6,650.6,327,651.4,327.4z"/>
	<path d="M660.2,333.1c-0.1-0.1-0.2-0.2-0.4-0.3C659.9,332.9,660.1,333,660.2,333.1z"/>
	<path d="M657.4,331c-0.2-0.1-0.4-0.3-0.6-0.4C657,330.7,657.2,330.9,657.4,331z"/>
	<path d="M664.5,337c0.1,0.1,0.2,0.2,0.4,0.4C664.8,337.3,664.7,337.2,664.5,337z"/>
	<path d="M651.5,327.5c0,0-0.1,0-0.1-0.1C651.4,327.5,651.5,327.5,651.5,327.5z"/>
	<path fill="#FFFFFF" d="M630.7,346c0.1,0,0.2,0,0.3,0l0,0C630.9,346,630.8,346,630.7,346z"/>
	<path d="M644.5,396.1c-0.1,0-0.2,0-0.3,0l0,0C644.2,396.1,644.4,396.1,644.5,396.1z"/>
	<path d="M651.1,238.4h-74c0.1,0,0.2,0.1,0.3,0.2c0.9,0.4,1.7,0.7,2.5,1.2c0,0,0.1,0,0.1,0.1c0.9,0.4,1.7,0.9,2.6,1.4
		c0.2,0.1,0.5,0.3,0.7,0.4c0.7,0.4,1.3,0.8,2,1.2c0.2,0.1,0.4,0.3,0.6,0.4c0.8,0.6,1.6,1.2,2.4,1.8c0.1,0.1,0.2,0.2,0.4,0.3
		c0.7,0.5,1.3,1.1,2,1.7c0.2,0.2,0.4,0.4,0.6,0.6c0.6,0.6,1.2,1.2,1.8,1.8c0.1,0.1,0.2,0.2,0.4,0.4c0.7,0.7,1.4,1.5,2,2.3
		c0.2,0.2,0.3,0.4,0.5,0.6c0.5,0.6,1,1.3,1.5,1.9c0.1,0.1,0.2,0.3,0.3,0.4H651c15.4,0,26.1,12.8,26.1,28.5
		c0,15.7-10.7,28.5-26.1,28.5h-53.3h-24.7c-5,0-10.4-1.6-14.6-4.3c-3.6-2.3-6.7-5.4-9-9c-2.3-3.7-3.8-7.9-4.2-12.2
		c-0.1-1-0.2-2-0.2-3c0-10.6,5.7-20.1,14.6-25c-0.1,0-0.2,0-0.3,0h-22.8c-4.9,7.4-7.5,16.1-7.5,25c0,9.3,2.8,18.2,8,25.8
		c6.9,10.1,17.6,16.9,29.4,18.7c2.2,0.3,4.4,0.5,6.6,0.5h78c24.2,0,44-20.2,44-44.9C695.1,258.5,675.3,238.4,651.1,238.4z"/>
	<path fill="#DD3627" d="M436.9,383.4c-1,0-3-0.5-3-2.6v-65.5c8.1,10.8,18.9,20.5,32.8,24.8l-27.5,42.1
		C438.7,383,437.9,383.4,436.9,383.4z"/>
	<path fill="#DD3627" d="M436.9,186.5c-1,0-3,0.5-3,2.6v65.5c8.1-10.8,18.9-20.6,32.8-24.9l-27.4-42
		C438.7,186.9,437.9,186.5,436.9,186.5z"/>
	<path d="M595.4,257.5c-6.9-10.1-17.6-16.9-29.4-18.7c-2.2-0.3-4.4-0.5-6.6-0.5h-78c-3,0-5.8,0.3-8.6,0.9
		c-19.1,3.9-33.7,20.5-35.2,40.7c-0.1,1.1-0.1,2.2-0.1,3.4c0,24.8,19.7,44.9,44,44.9h74c-0.1,0-0.2-0.1-0.3-0.2
		c-0.9-0.4-1.7-0.7-2.6-1.2c0,0-0.1,0-0.1-0.1c-0.9-0.4-1.8-0.9-2.6-1.4c-0.2-0.1-0.5-0.3-0.7-0.4c-0.7-0.4-1.3-0.8-2-1.2
		c-0.2-0.1-0.4-0.3-0.6-0.4c-0.8-0.6-1.6-1.2-2.4-1.8c-0.1-0.1-0.2-0.2-0.4-0.3c-0.7-0.5-1.3-1.1-1.9-1.7c-0.2-0.2-0.4-0.4-0.6-0.6
		c-0.6-0.6-1.2-1.2-1.8-1.8c-0.1-0.1-0.3-0.3-0.4-0.4c-0.7-0.7-1.4-1.5-2-2.2c-0.2-0.2-0.3-0.4-0.5-0.6c-0.5-0.6-1-1.2-1.5-1.9
		c-0.1-0.1-0.2-0.3-0.3-0.4h-53.3c-15.4,0-26.1-12.8-26.1-28.5s10.7-28.5,26.1-28.5h53.3h24.7c2.4,0,4.9,0.3,7.4,1
		c1.8,0.5,3.5,1.2,5.1,2c9.4,4.7,15.6,14.6,15.6,25.5c0,10.6-5.7,20.1-14.6,25c0.1,0,0.2,0,0.3,0h22.8c4.9-7.4,7.5-16.1,7.5-25
		C603.4,274,600.6,265.1,595.4,257.5z"/>
	<g>
		<polygon fill="#DD3627" points="539.4,225.5 539.5,226.1 546.7,226.1 542.1,223.6 		"/>
		<polygon fill="#DD3627" points="539.2,105 516.1,99.5 520.9,125.2 529,125.6 		"/>
		<path fill="#DD3627" d="M540.9,208.4l3.5,7.4l9.5-0.5l-7.3,5.1l2.7,5.6h54.1L576.8,165l-7.3-16.9l-5.9-13.6l-11.8,5.9l7.4,22.4
			l-22.7-14.8l-10.4,5.2l11.6,63l0.9,0L540.9,208.4z M567.6,194.3l6.2,6l8.7-3.1l-4.8,6.8l6.2,6l-9.2-1.8l-4.8,6.8l-0.9-7.9
			l-9.2-1.8l8.7-3.1L567.6,194.3z"/>
		<polygon fill="#DD3627" points="560.4,127.2 552.1,108.1 540,105.2 547.1,126.6 		"/>
		<polygon fill="#FBDC2F" points="569,207.1 569.9,215 574.7,208.2 583.9,209.9 577.7,204 582.5,197.1 573.8,200.3 567.6,194.3 
			568.5,202.2 559.7,205.3 		"/>
		<polygon fill="#FBDC2F" points="546.6,220.4 553.9,215.3 544.4,215.9 540.9,208.4 538.6,216.2 537.7,216.2 539.4,225.5 
			542.1,223.6 546.7,226.1 549.2,226.1 		"/>
		<polygon fill="#FBDC2F" points="559.1,162.9 551.7,140.4 563.5,134.5 563.1,133.5 560.4,127.2 547.1,126.6 540,105.2 539.2,105 
			529,125.6 520.9,125.2 526.1,153.2 536.4,148.1 		"/>
	</g>
	<polygon fill="#DD3627" points="549.2,340.6 546.7,340.6 539.5,340.6 539.4,341.2 537.7,350.4 526.1,413.4 520.9,441.4 
		516.1,467.1 539.2,461.6 540,461.4 552.1,458.5 560.4,439.4 563.1,433.1 563.5,432.1 569.4,418.5 576.8,401.7 603.4,340.6 	"/>
	<g>
		<path d="M321.8,196.3v41h-11.1v-41H297v-9.8h38.6v9.8H321.8z"/>
		<path d="M353.6,186.5v31.1c0,7.1,2.6,10.7,9.2,10.7c6.5,0,9.2-3.6,9.2-10.7v-31.1h10.8v30c0,15-5.4,21.7-19.9,21.7
			c-14.5,0-19.9-6.7-19.9-21.7v-30H353.6z"/>
		<path d="M117.9,309.3v-50.8h34.5v9.8H129v10.4h20.1v9.7H129v11h23.5v9.8H117.9z"/>
		<path d="M177.6,285.3l-4.9-10.2h-0.2v34.2h-10.4v-50.8h12.1l13.9,24l4.9,10.2h0.2v-34.2h10.4v50.8h-12.1L177.6,285.3z"/>
		<path d="M214.7,309.3v-50.8h11.1v41h19.3v9.8H214.7z"/>
		<path d="M285.8,309.3l-3.6-12.1h-16.9l-3.6,12.1h-11.2l16.7-50.8h13.7l16.5,50.8H285.8z M273.8,268.5h-0.4l-5.6,19.3h11.6
			L273.8,268.5z"/>
		<path d="M300.2,284.2c0-17.2,8.8-26.6,22.5-26.6c9.3,0,15.3,3.8,19,11.9l-9.5,4.9c-1.3-4.2-4-7.1-9.5-7.1
			c-6.5,0-10.8,4.4-10.8,12.4v8.1c0,8,4.3,12.4,10.8,12.4c5.5,0,8.6-3.4,10.1-7.6l9,5.2c-3.8,7.7-9.8,12.1-19.1,12.1
			C309,310.1,300.2,301.4,300.2,284.2z"/>
		<path d="M349.5,309.3v-50.8H384v9.8h-23.5v10.4h20.1v9.7h-20.1v11H384v9.8H349.5z"/>
		<path d="M78.5,338.3h19.1c13.5,0,22.3,8.5,22.3,25.4c0,16.9-8.9,25.4-22.3,25.4H78.5V338.3z M97.7,379.2c6.5,0,10.6-3.6,10.6-11.6
			v-7.9c0-8.1-4.1-11.6-10.6-11.6h-8.1v31.1H97.7z"/>
		<path d="M127.3,389v-8.8h6.5v-33.2h-6.5v-8.8h24.1v8.8h-6.5v33.2h6.5v8.8H127.3z"/>
		<path d="M171.7,389h-11.1v-50.8h24.1c9.4,0,15.3,6.5,15.3,16.2c0,6.8-3.1,12.3-9.2,14.6l10,19.9h-12.3l-8.9-18.6h-7.9V389z
			 M183.3,361.1c3.3,0,5.3-1.7,5.3-5v-3.2c0-3.3-2-5-5.3-5h-11.6v13.2H183.3z"/>
		<path d="M209.7,389v-50.8h34.5v9.8h-23.5v10.4h20.1v9.7h-20.1v11h23.5v9.8H209.7z"/>
		<path d="M251.8,364c0-17.2,8.8-26.6,22.5-26.6c9.3,0,15.3,3.8,19,11.9l-9.5,4.9c-1.3-4.2-4-7.1-9.5-7.1c-6.5,0-10.8,4.4-10.8,12.4
			v8.1c0,8,4.3,12.4,10.8,12.4c5.5,0,8.6-3.4,10.1-7.6l9,5.2c-3.8,7.7-9.8,12.1-19.1,12.1C260.6,389.9,251.8,381.2,251.8,364z"/>
		<path d="M322.3,348.1v41h-11.1v-41h-13.7v-9.8h38.6v9.8H322.3z"/>
		<path d="M339.9,363.6c0-17.2,8.9-26.3,22.3-26.3s22.3,9,22.3,26.3c0,17.2-8.9,26.3-22.3,26.3S339.9,380.9,339.9,363.6z
			 M372.8,367.4v-7.6c0-8.1-4-12.7-10.6-12.7s-10.6,4.6-10.6,12.7v7.6c0,8.1,4,12.7,10.6,12.7S372.8,375.5,372.8,367.4z"/>
	</g>
</g>
<g id="Capa_4">
</g>
</svg>
