<?xml version="1.0" encoding="UTF-8"?>
<svg width="88px" height="19px" viewBox="0 0 88 19" version="1.1" xmlns="http://www.w3.org/2000/svg" xmlns:xlink="http://www.w3.org/1999/xlink">
    <!-- Generator: Sketch 61 (89581) - https://sketch.com -->
    <title>logo</title>
    <desc>Created with Sketch.</desc>
    <g id="logo" stroke="none" stroke-width="1" fill="none" fill-rule="evenodd">
        <rect id="Rectangle-Copy-2" stroke="#282828" stroke-width="4" x="18" y="3" width="8" height="14"></rect>
        <rect id="Rectangle-Copy-3" stroke="#282828" stroke-width="4" x="2" y="3" width="8" height="14"></rect>
        <path d="M39.8330078,18.5180664 L39.8330078,10.9741211 L46.7543945,10.9741211 L46.7543945,18.5180664 L50.5751953,18.5180664 L50.5751953,0.744628906 L46.7543945,0.744628906 L46.7543945,7.88574219 L39.8330078,7.88574219 L39.8330078,0.744628906 L36,0.744628906 L36,18.5180664 L39.8330078,18.5180664 Z M55.4580078,3.78417969 C56.0764974,3.78417969 56.5749512,3.60717773 56.9533691,3.25317383 C57.3317871,2.89916992 57.5209961,2.44547526 57.5209961,1.89208984 C57.5209961,1.33870443 57.3317871,0.885009766 56.9533691,0.531005859 C56.5749512,0.177001953 56.0764974,0 55.4580078,0 C54.8476562,0 54.3532715,0.177001953 53.9748535,0.531005859 C53.5964355,0.885009766 53.4072266,1.33870443 53.4072266,1.89208984 C53.4072266,2.44547526 53.5964355,2.89916992 53.9748535,3.25317383 C54.3532715,3.60717773 54.8476562,3.78417969 55.4580078,3.78417969 Z M57.3256836,18.5180664 L57.3256836,5.31005859 L53.6269531,5.31005859 L53.6269531,18.5180664 L57.3256836,18.5180664 Z M63.8320312,18.5180664 L63.8320312,9.98535156 C64.2307943,9.11458333 65.0893555,8.67919922 66.4077148,8.67919922 C66.8064779,8.67919922 67.241862,8.7117513 67.7138672,8.77685547 L67.7138672,8.77685547 L67.7626953,5.21240234 C67.632487,5.17171224 67.4615885,5.13712565 67.25,5.10864258 C67.0384115,5.08015951 66.8390299,5.06591797 66.6518555,5.06591797 C66.0252279,5.06591797 65.4616699,5.22460938 64.9611816,5.54199219 C64.4606934,5.859375 64.0476888,6.31510417 63.722168,6.90917969 L63.722168,6.90917969 L63.6123047,5.31005859 L60.1455078,5.31005859 L60.1455078,18.5180664 L63.8320312,18.5180664 Z M75.0380859,18.762207 C76.3483073,18.762207 77.4754232,18.4733073 78.4194336,17.8955078 C79.363444,17.3177083 80.0816243,16.5222168 80.5739746,15.5090332 C81.0663249,14.4958496 81.3125,13.3422852 81.3125,12.0483398 L81.3125,12.0483398 L81.3125,11.7919922 C81.3125,10.4980469 81.0663249,9.34244792 80.5739746,8.32519531 C80.0816243,7.30794271 79.3614095,6.51041667 78.4133301,5.93261719 C77.4652507,5.35481771 76.3320312,5.06591797 75.0136719,5.06591797 C73.7034505,5.06591797 72.5763346,5.35481771 71.6323242,5.93261719 C70.6883138,6.51041667 69.9701335,7.30794271 69.4777832,8.32519531 C68.9854329,9.34244792 68.7392578,10.4980469 68.7392578,11.7919922 L68.7392578,11.7919922 L68.7392578,12.0483398 C68.7392578,13.3422852 68.9854329,14.4958496 69.4777832,15.5090332 C69.9701335,16.5222168 70.6903483,17.3177083 71.6384277,17.8955078 C72.5865072,18.4733073 73.7197266,18.762207 75.0380859,18.762207 Z M75.0380859,15.7958984 C74.1266276,15.7958984 73.4633789,15.4561361 73.0483398,14.7766113 C72.6333008,14.0970866 72.4257812,13.1876628 72.4257812,12.0483398 L72.4257812,12.0483398 L72.4257812,11.7919922 C72.4257812,10.6770833 72.6333008,9.77172852 73.0483398,9.07592773 C73.4633789,8.38012695 74.1184896,8.03222656 75.0136719,8.03222656 C75.9251302,8.03222656 76.5883789,8.37809245 77.003418,9.06982422 C77.418457,9.76155599 77.6259766,10.6689453 77.6259766,11.7919922 L77.6259766,11.7919922 L77.6259766,12.0483398 C77.6259766,13.1795247 77.418457,14.0869141 77.003418,14.7705078 C76.5883789,15.4541016 75.9332682,15.7958984 75.0380859,15.7958984 Z M85.6582031,18.6523438 C86.0651042,18.6523438 86.4272461,18.5668945 86.7446289,18.3959961 C87.0620117,18.2250977 87.3061523,17.9911296 87.4770508,17.6940918 C87.6479492,17.397054 87.7333984,17.0654297 87.7333984,16.6992188 C87.7333984,16.3330078 87.6479492,16.0013835 87.4770508,15.7043457 C87.3061523,15.4073079 87.0620117,15.1733398 86.7446289,15.0024414 C86.4272461,14.831543 86.0651042,14.7460938 85.6582031,14.7460938 C85.2513021,14.7460938 84.8911947,14.831543 84.5778809,15.0024414 C84.2645671,15.1733398 84.0224609,15.4073079 83.8515625,15.7043457 C83.6806641,16.0013835 83.5952148,16.3330078 83.5952148,16.6992188 C83.5952148,17.0654297 83.6806641,17.397054 83.8515625,17.6940918 C84.0224609,17.9911296 84.2645671,18.2250977 84.5778809,18.3959961 C84.8911947,18.5668945 85.2513021,18.6523438 85.6582031,18.6523438 Z" id="Hiro." fill="#100E0E" fill-rule="nonzero"></path>
    </g>
</svg>