<?xml version="1.0" encoding="UTF-8"?>
<svg width="20px" height="16px" viewBox="0 0 20 16" version="1.1" xmlns="http://www.w3.org/2000/svg" xmlns:xlink="http://www.w3.org/1999/xlink">
    <!-- Generator: Sketch 61 (89581) - https://sketch.com -->
    <title>twitter@1x</title>
    <desc>Created with Sketch.</desc>
    <g id="Hiro" stroke="none" stroke-width="1" fill="none" fill-rule="evenodd">
        <g id="Costomark-Agency" transform="translate(-641.000000, -4098.000000)" fill="#000000" fill-rule="nonzero">
            <g id="Stacked-Group-5" transform="translate(641.000000, 4094.000000)">
                <g id="twitter" transform="translate(0.000000, 4.000000)">
                    <path d="M17.945,3.9933749 C18.7583333,3.4261231 19.4425,2.71808153 20,1.90281055 L20,1.90199201 C19.2558333,2.22204317 18.4641667,2.43486491 17.6375,2.5380016 C18.4875,2.03950759 19.1366667,1.25615987 19.4416667,0.312377298 C18.6491667,0.776492406 17.7741667,1.10391047 16.8416667,1.28726459 C16.0891667,0.499824141 15.0166667,0.0127897682 13.8466667,0.0127897682 C11.5766667,0.0127897682 9.74916667,1.82259313 9.74916667,4.04085052 C9.74916667,4.36008313 9.77666667,4.66703757 9.84416667,4.95925819 C6.43583333,4.79554916 3.41916667,3.19120064 1.3925,0.746206235 C1.03916667,1.34947402 0.830833333,2.03950759 0.830833333,2.78192806 C0.830833333,4.17672902 1.56166667,5.41273221 2.6525,6.12895923 C1.99333333,6.11668106 1.3475,5.92841567 0.8,5.63292086 L0.8,5.6771223 C0.8,7.63426379 2.22083333,9.25989448 4.085,9.63478817 C3.75083333,9.72482814 3.3875,9.76739249 3.01,9.76739249 C2.7475,9.76739249 2.4825,9.75265867 2.23416667,9.69863469 C2.765,11.2931607 4.27333333,12.4661359 6.065,12.5046075 C4.67,13.5760831 2.89833333,14.2219153 0.980833333,14.2219153 C0.645,14.2219153 0.3225,14.2071815 -2.22044605e-15,14.1670727 C1.81666667,15.3171287 3.96833333,15.9744205 6.29,15.9744205 C13.5258333,15.9744205 18.2416667,10.0448793 17.945,3.9933749 Z" id="Path"></path>
                </g>
            </g>
        </g>
    </g>
</svg>